<?xml version="1.0" encoding="UTF-8" standalone="no"?>
<!-- Created with Inkscape (http://www.inkscape.org/) -->

<svg
   xmlns:dc="http://purl.org/dc/elements/1.1/"
   xmlns:cc="http://creativecommons.org/ns#"
   xmlns:rdf="http://www.w3.org/1999/02/22-rdf-syntax-ns#"
   xmlns:svg="http://www.w3.org/2000/svg"
   xmlns="http://www.w3.org/2000/svg"
   xmlns:sodipodi="http://sodipodi.sourceforge.net/DTD/sodipodi-0.dtd"
   xmlns:inkscape="http://www.inkscape.org/namespaces/inkscape"
   width="200mm"
   height="200mm"
   viewBox="0 0 209.16785 176.45296"
   version="1.1"
   id="svg8"
   inkscape:version="0.92.3 (2405546, 2018-03-11)"
   sodipodi:docname="Laughing torso.svg">
  <title
     id="title105">Laughing torso</title>
  <defs
     id="defs2" />
  <sodipodi:namedview
     id="base"
     pagecolor="#ffffff"
     bordercolor="#666666"
     borderopacity="1.0"
     inkscape:pageopacity="0.0"
     inkscape:pageshadow="2"
     inkscape:zoom="0.43793664"
     inkscape:cx="-191.46544"
     inkscape:cy="229.80321"
     inkscape:document-units="mm"
     inkscape:current-layer="layer1"
     showgrid="false"
     fit-margin-top="0"
     fit-margin-left="0"
     fit-margin-right="0"
     fit-margin-bottom="0"
     inkscape:window-width="1920"
     inkscape:window-height="1025"
     inkscape:window-x="0"
     inkscape:window-y="27"
     inkscape:window-maximized="1" />
  <metadata
     id="metadata5">
    <rdf:RDF>
      <cc:Work
         rdf:about="">
        <dc:format>image/svg+xml</dc:format>
        <dc:type
           rdf:resource="http://purl.org/dc/dcmitype/StillImage" />
        <dc:title>Laughing torso</dc:title>
        <dc:creator>
          <cc:Agent>
            <dc:title>Doodleguy</dc:title>
          </cc:Agent>
        </dc:creator>
        <dc:rights>
          <cc:Agent>
            <dc:title>public domain</dc:title>
          </cc:Agent>
        </dc:rights>
        <dc:source>www.fresvg.org</dc:source>
        <dc:date>2023</dc:date>
        <cc:license
           rdf:resource="http://creativecommons.org/publicdomain/zero/1.0/" />
      </cc:Work>
      <cc:License
         rdf:about="http://creativecommons.org/publicdomain/zero/1.0/">
        <cc:permits
           rdf:resource="http://creativecommons.org/ns#Reproduction" />
        <cc:permits
           rdf:resource="http://creativecommons.org/ns#Distribution" />
        <cc:permits
           rdf:resource="http://creativecommons.org/ns#DerivativeWorks" />
      </cc:License>
    </rdf:RDF>
  </metadata>
  <g
     inkscape:groupmode="layer"
     id="layer2"
     inkscape:label="b"
     transform="translate(-0.55816007,-119.83171)" />
  <g
     inkscape:label="Layer 1"
     inkscape:groupmode="layer"
     id="layer1"
     transform="translate(-0.55816007,-119.83171)">
    <g
       id="g103">
      <path
         transform="scale(0.26458333)"
         inkscape:connector-curvature="0"
         id="path50"
         d="m 253.48364,458.71119 c -16.67056,0.56096 -30.67915,11.22244 -45.55095,17.52763 -7.3318,4.59685 -16.8528,6.65128 -22.91234,12.72707 -17.79753,26.66242 -38.1416,51.78796 -53.36155,80.07492 -9.66418,21.58991 -13.82682,45.16434 -19.22412,68.07045 -4.97127,27.3661 -4.74228,55.63094 -1.24875,83.16031 3.02691,19.40569 11.95465,37.38087 13.54402,57.09707 5.2947,30.89826 5.67358,62.93753 15.84473,92.81734 11.76375,30.05039 29.56224,57.98305 36.6837,89.72143 0.99309,13.31772 -11.5478,22.08668 -16.24718,33.51566 -1.09336,3.68273 -4.52609,2.90629 -5.83123,-0.0402 -2.15847,-3.44773 -4.5685,-9.01759 -9.689,-6.67413 -32.06232,10.77707 -57.288942,34.29556 -85.156078,52.49676 -19.37948,13.2745 -40.297412,26.7091 -52.5145525,47.3947 -4.8246289,8.8512 5.0064805,17.4112 12.9558195,19.5541 28.298301,10.2096 58.869246,5.9884 88.260131,5.7041 37.74482,-2.366 75.40858,-5.8825 113.20219,-7.4952 24.03358,-1.7102 51.83104,-5.0897 67.67978,-25.5478 5.38066,-6.2356 9.20136,-18.9436 0.0112,-23.6148 -3.45482,-1.5624 -3.90115,2.7398 -3.0929,5.0039 -1.64954,5.8745 -5.08229,13.332 -11.37926,15.0051 -3.59675,-0.9851 1.82239,-4.5873 2.50643,-5.994 2.92338,-4.4793 6.09935,-11.8245 2.75171,-16.6551 -4.60632,1.6253 -4.58228,8.6628 -8.60971,11.4105 -1.14746,1.0106 -4.73083,5.2612 -5.82678,2.9701 1.57685,-5.287 8.8576,-10.2546 6.24601,-16.1691 -5.57431,-0.8698 -9.4021,6.0816 -13.59664,8.7456 -0.99395,1.0564 -6.68041,5.9433 -5.80587,1.7194 1.37425,-3.4945 8.45064,-7.4951 4.77648,-11.4306 -8.3634,-4.6005 -14.15866,6.8172 -21.23328,8.913 -1.75587,-2.1806 3.22734,-4.7417 4.40409,-6.4311 9.52812,-5.8764 3.559,-6.3791 -4.2314,-5.309 -5.8087,-0.9273 -11.94725,2.2919 -12.48852,8.558 -1.4989,5.8152 1.07539,13.0542 -2.609,18.0958 -11.55784,6.0851 -25.52535,4.5833 -38.13159,6.5336 -25.70987,2.209 -51.41024,7.5262 -77.26724,3.9581 -19.575567,-2.0982 -39.509234,-2.5445 -58.849142,-5.9849 -1.679384,-2.8077 3.835975,-5.3674 5.177868,-7.3967 22.283807,-20.7873 52.412034,-28.7716 78.486844,-43.368 2.17841,-0.4393 5.95402,-3.9436 7.58797,-2.2293 -5.39254,6.8331 -14.96564,9.2315 -22.2682,13.6436 -18.386254,9.67 -38.103009,17.1352 -55.364146,28.7828 -1.885598,1.1978 -7.031089,5.7673 -2.446219,6.8347 23.515531,2.8726 47.231635,5.9878 70.974545,5.4649 26.32474,-2.4232 52.6593,-4.802 79.04993,-6.3991 4.30473,0.1947 9.69366,-1.2074 9.38786,-6.5517 0.55261,-9.4146 4.51862,-18.2663 6.27945,-27.3588 5.23244,-1.1991 11.29715,1.8459 16.71545,1.94 42.47336,7.3427 85.44784,11.1715 128.11568,17.1392 59.30529,5.6853 118.98868,8.4683 177.8112,18.2993 17.21271,1.1647 34.38976,2.5931 51.49542,4.9921 24.4524,2.0096 49.99272,-5.8047 73.48833,3.8794 6.31435,1.2211 13.82194,5.3972 20.01434,2.1905 2.28421,-6.1953 -6.11562,-10.031 -10.6501,-12.1508 -9.23723,-4.4002 -20.83801,-2.7745 -29.14725,-8.9175 -0.64252,-3.0238 5.22287,-0.5805 6.69948,-1.2718 40.9668,1.9674 81.56225,10.5443 122.65357,9.6831 4.2304,0.5519 5.49378,-5.7871 0.95886,-6.4869 -23.41226,-9.2661 -49.11385,-9.8501 -73.82764,-12.9512 -10.68997,-1.5282 -21.94411,-0.8021 -32.34095,-3.655 -0.86326,-2.0394 4.20977,-1.7288 5.43877,-2.221 7.9562,-1.6405 16.76201,0.9549 24.34401,-2.1228 1.05896,-3.7746 -5.1978,-5.9981 -8.17042,-6.5515 -12.25089,-0.7739 -23.96878,4.7443 -35.49805,7.2227 -0.28013,-4.1705 5.83811,-5.925 8.88176,-7.6241 2.81772,-1.6729 12.54811,-3.1102 10.65907,-4.3587 -9.93275,-0.8117 -19.93953,0.2232 -29.0046,4.5192 -1.79468,1.0435 -6.93459,1.3988 -3.27798,-1.3424 3.06435,-2.631 11.21486,-6.9365 2.16301,-5.6461 -13.56603,2.6876 -25.66172,10.8047 -36.24729,19.4359 -2.4784,3.4854 -6.44992,5.2335 -10.58765,3.3627 -49.86588,-6.1383 -100.18485,-9.2464 -149.38871,-19.9209 -37.30595,-7.9182 -75.13091,-13.5355 -113.30313,-14.5006 -35.36491,-0.7932 -70.13596,-8.4241 -105.48601,-9.4709 -9.64293,-0.1726 -19.64285,-2.4884 -26.07823,-10.2389 -5.15259,-5.52781 -14.27697,-5.19242 -19.24641,0.281 -4.88994,2.9463 -14.85556,-0.8978 -11.31683,-7.70211 3.40389,-10.32564 10.29551,-19.17845 18.32099,-26.35763 14.36788,4.64931 30.26749,7.39666 44.65423,1.18891 11.99937,-4.79826 25.31749,-8.80935 34.65725,-18.12959 12.24714,-18.11343 19.46543,-39.3761 24.1982,-60.5949 1.75054,-21.66011 1.26028,-43.52956 0.51598,-65.23264 0.74763,-3.16207 -4.75212,-8.16443 -5.68184,-3.06391 -6.8012,20.67247 -9.79231,43.36154 -23.87419,60.82286 -8.65918,13.29421 -22.21233,28.08555 -39.70521,25.25641 -16.18837,-4.66699 -33.3551,-13.42359 -39.78034,-30.09174 -9.32547,-20.80816 -17.28451,-42.19914 -25.95093,-63.28604 2.06841,-45.5111 4.88676,-91.04796 12.09143,-136.08025 6.3055,-45.29271 7.15428,-91.0935 11.53964,-136.54682 0.29977,-8.15045 10.95418,-17.26243 18.23785,-10.83779 2.90362,2.81414 7.88192,6.35558 7.43455,10.659 -5.84487,-0.93724 -9.32434,-8.66209 -15.48008,-8.85946 -1.44884,3.07199 0.78614,7.29118 0.1527,10.75923 2.38291,43.92569 1.31526,88.05823 5.59415,131.86189 0.59291,8.65878 4.2035,17.72541 12.73934,21.32987 25.92726,14.68072 54.16196,25.83746 83.52137,31.15117 4.17733,-1.14255 1.9271,-7.77386 2.53988,-10.89762 -0.19869,-8.12763 -9.62462,-11.25358 -13.80543,-17.23502 -3.61914,-4.00046 -7.78111,-10.23264 -5.5837,-15.68078 3.32268,-0.27057 3.70216,5.40493 5.28489,7.55273 2.60771,9.69747 12.89556,14.90726 22.43744,13.22563 5.76439,-0.3191 14.94248,-4.6196 11.49299,-11.75389 -1.57734,-6.06927 -6.7178,-10.48583 -13.17435,-10.19964 -3.70119,-1.06067 -10.01276,-1.35608 -11.71375,-5.02623 5.54838,-2.1381 14.40205,1.14281 16.85148,-6.5738 2.22045,-5.06694 6.84708,-10.91963 5.17787,-16.58389 -2.14484,-0.71591 -8.92682,1.34738 -6.62509,-3.17094 4.29467,-6.62522 10.733,-12.4447 10.74374,-21.02366 2.82387,-37.68646 2.85374,-76.24343 -6.02424,-113.18513 -3.1527,-14.86593 -11.55732,-28.10311 -23.40397,-37.58627 -12.6471,-10.09159 -26.77022,-23.31441 -44.12561,-22.47311 z m 13.13198,151.58978 c 12.39492,7.69908 22.13725,19.17171 32.26021,29.57093 3.13756,2.73809 -3.3603,3.69426 -5.02845,3.50766 -6.99775,-0.3614 -15.12756,1.24376 -21.3537,-2.49082 -0.43618,-3.33451 5.45,-1.89917 7.46354,-2.93457 3.78444,0.0732 6.3068,-4.2698 2.68705,-6.66967 -6.07116,-6.34712 -12.53947,-13.31773 -16.49247,-20.97461 0.1404,-0.083 0.31697,-0.0308 0.46382,-0.009 z"
         style="opacity:1;vector-effect:none;fill:#ff5555;fill-opacity:1;stroke:none;stroke-width:3.30109239;stroke-linecap:round;stroke-linejoin:miter;stroke-miterlimit:4;stroke-dasharray:none;stroke-dashoffset:0;stroke-opacity:1" />
      <path
         transform="scale(0.26458333)"
         inkscape:connector-curvature="0"
         id="path52"
         d="m 700.12292,1074.3583 c -1.02339,-0.091 -2.01137,0.8442 -1.70728,1.891 0.14649,2.6338 2.82713,4.461 5.33313,4.307 1.2127,0.1204 2.73172,-0.1744 3.19324,-1.4725 0.38054,-1.525 -1.17313,-2.5985 -2.30908,-3.2724 -1.38313,-0.7512 -2.90525,-1.4532 -4.51001,-1.4531 z"
         style="opacity:1;vector-effect:none;fill:#ff5555;fill-opacity:1;stroke:none;stroke-width:0.41263655;stroke-linecap:round;stroke-linejoin:miter;stroke-miterlimit:4;stroke-dasharray:none;stroke-dashoffset:0;stroke-opacity:1" />
      <path
         transform="scale(0.26458333)"
         inkscape:connector-curvature="0"
         id="path54"
         d="m 650.35123,1034.2234 c -0.33483,-4e-4 -0.67172,0.01 -1.00055,0.078 -0.92511,0.1751 -1.81688,0.4885 -2.69495,0.8222 -0.40184,0.1564 -0.8034,0.3148 -1.1977,0.4892 -0.11744,0.059 -0.14723,0.2356 -0.0476,0.3242 0.069,0.073 0.18002,0.065 0.26592,0.029 1.48974,-0.4805 2.99725,-0.9096 4.52318,-1.2647 0.12146,-0.035 0.25392,-0.043 0.36648,-0.1033 0.0988,-0.064 0.11966,-0.2131 0.0407,-0.3012 -0.065,-0.075 -0.16427,-0.076 -0.25555,-0.073 z"
         style="opacity:1;vector-effect:none;fill:#ff5555;fill-opacity:1;stroke:none;stroke-width:0.02578978;stroke-linecap:round;stroke-linejoin:miter;stroke-miterlimit:4;stroke-dasharray:none;stroke-dashoffset:0;stroke-opacity:1" />
      <path
         transform="scale(0.26458333)"
         inkscape:connector-curvature="0"
         id="path56"
         d="m 196.16836,544.99063 c -1.16964,1.62679 -0.73361,4.13564 -1.17431,6.06544 -2.2845,27.34478 -2.31528,54.83264 -4.89919,82.16019 -2.70393,32.25993 -8.21177,64.19673 -11.94368,96.33759 -1.67469,18.66935 -3.2251,37.40656 -3.07007,56.16074 0.0683,1.51146 1.19811,3.77447 2.90326,2.18892 5.11766,-2.47062 11.16199,-2.79143 16.29186,-0.14005 7.80755,3.4754 12.43606,11.04702 16.48059,18.1898 1.70718,3.12163 4.82826,5.27915 8.42321,5.4549 6.36771,1.59702 10.08952,7.79548 13.39562,13.0164 6.04543,10.77375 10.36168,22.49222 13.32211,34.46388 1.11243,3.56171 -0.3297,7.90511 2.06026,11.01467 1.96667,1.24971 3.13135,-1.76823 3.7567,-3.12598 2.45279,-4.98401 3.12673,-11.11073 0.27487,-16.0868 -6.7367,-16.01167 -9.10824,-33.70665 -8.06106,-50.97643 1.43242,-10.28783 5.39609,-20.02544 7.83665,-30.0954 0.74644,-2.67588 0.14293,-5.48134 -1.6982,-7.55755 -3.31998,-5.09443 -2.17737,-11.3958 -2.61649,-17.13472 -0.17998,-6.67987 -0.078,-13.38276 -0.47324,-20.04834 -2.05343,0.55107 -3.89323,2.47601 -5.85139,3.52624 -4.48112,2.72639 -8.6297,6.28807 -13.592,8.06631 -2.99979,-1.67929 -4.21633,-5.39951 -5.12377,-8.51939 -1.69152,-6.05459 -1.89869,-12.46553 -3.38064,-18.52334 -2.14397,-0.557 -4.12905,1.52971 -5.99969,2.33129 -5.62689,3.15324 -10.55064,7.76536 -16.7392,9.75638 -2.74583,0.30683 -3.04796,-3.34465 -3.04441,-5.22603 0.22012,-12.52183 3.16778,-24.83754 3.9318,-37.34479 1.53732,-23.24661 0.81669,-46.56822 0.98309,-69.84876 -0.19346,-20.37109 0.14412,-40.77533 -1.11992,-61.11637 -0.28158,-0.82477 0.0897,-2.59609 -0.87276,-2.9888 z"
         style="opacity:1;vector-effect:none;fill:#782121;fill-opacity:1;stroke:none;stroke-width:1.16711235;stroke-linecap:round;stroke-linejoin:miter;stroke-miterlimit:4;stroke-dasharray:none;stroke-dashoffset:0;stroke-opacity:1" />
      <path
         transform="scale(0.26458333)"
         inkscape:connector-curvature="0"
         id="path58"
         d="m 186.26261,791.64909 c -4.36942,-0.0743 -9.77244,0.97994 -11.56896,5.54331 -1.72374,4.01202 -1.25091,8.48139 -1.25823,12.73185 0.19195,4.47354 0.59822,9.01134 1.99866,13.28741 0.35586,0.9656 0.99733,2.42151 2.24391,2.27308 1.45478,-0.91079 2.41764,-2.43662 3.54094,-3.70645 2.85602,-3.41941 5.04505,-7.40562 8.18229,-10.56725 0.78834,-0.84189 2.14443,-1.42981 3.1885,-0.72026 2.22284,1.2975 2.51085,4.12291 2.90747,6.41953 0.83723,5.67694 0.51987,11.43585 0.65284,17.15563 0.0814,9.30492 7.7e-4,18.62061 0.21578,27.92143 0.49388,0.35314 0.71259,-0.62344 1.03287,-0.88173 2.76101,-3.79686 5.07237,-7.97753 8.32414,-11.38142 1.12022,-1.02664 2.23483,-2.35164 3.78612,-2.6667 0.82576,0.27434 0.97722,1.35094 1.29992,2.05974 1.92904,6.43454 2.42037,13.19059 3.18595,19.84329 0.61791,4.8708 1.05896,9.80456 2.38757,14.54664 0.24081,0.55101 0.44507,1.73812 1.27301,1.53251 1.26259,-0.88837 1.87143,-2.43164 2.73736,-3.66864 5.72687,-9.46903 10.57397,-19.43026 15.73305,-29.2112 0.59583,-1.25638 1.38846,-2.4604 1.86504,-3.7485 -3.1652,-7.40283 -6.03104,-14.94527 -9.59969,-22.16802 -1.50103,-2.73595 -3.03718,-5.59105 -5.43215,-7.65644 -1.80751,-1.44005 -4.28537,-1.60923 -6.49996,-1.44289 -0.96168,0.14984 -0.62152,1.34017 -0.65531,2.01286 0.60741,7.14366 3.24416,13.92109 4.15293,21.00407 0.17879,2.17064 0.305,4.39016 0.0479,6.55875 -0.11448,0.63476 -0.83421,1.33598 -1.44331,0.76932 -1.53182,-0.90916 -1.80836,-2.86259 -2.47872,-4.36 -4.42732,-12.57289 -6.67926,-25.85195 -11.81591,-38.19149 -1.8971,-4.36961 -4.3258,-8.93786 -8.60188,-11.38993 -2.84288,-1.65122 -6.18165,-1.94396 -9.40217,-1.8985 z"
         style="opacity:1;vector-effect:none;fill:#ffaaaa;fill-opacity:1;stroke:none;stroke-width:0.41263655;stroke-linecap:round;stroke-linejoin:miter;stroke-miterlimit:4;stroke-dasharray:none;stroke-dashoffset:0;stroke-opacity:1" />
      <path
         transform="scale(0.26458333)"
         inkscape:connector-curvature="0"
         id="path60"
         d="m 189.10022,817.85905 c -3.23951,4.95145 -6.45731,9.9428 -9.32178,15.12442 -0.48896,0.99745 0.64425,2.00028 0.76763,2.98632 2.83913,7.30747 5.53237,14.67896 8.53523,21.91843 0.76183,0.0924 0.32926,-1.31298 0.55424,-1.80936 0.95681,-11.94638 0.96374,-23.97808 0.0372,-35.92653 -0.10628,-0.75279 -0.0486,-1.5582 -0.28791,-2.27869 -0.0522,0.13982 -0.21346,-0.0901 -0.28461,-0.0146 z"
         style="opacity:1;vector-effect:none;fill:#ffffff;fill-opacity:1;stroke:none;stroke-width:0.58355618;stroke-linecap:round;stroke-linejoin:miter;stroke-miterlimit:4;stroke-dasharray:none;stroke-dashoffset:0;stroke-opacity:1" />
      <path
         transform="scale(0.26458333)"
         inkscape:connector-curvature="0"
         id="path62"
         d="m 206.28171,855.3764 c -1.38274,2.35553 -2.23128,5.03901 -3.4264,7.50802 -2.39701,5.5949 -5.08341,11.70827 -3.73814,17.92244 1.16401,4.78195 4.18394,8.93485 7.64979,12.33483 0.94647,0.75418 2.42975,1.93213 3.57498,0.86842 1.20344,-1.4766 0.61397,-3.60799 0.56686,-5.34729 -1.48442,-10.56266 -2.86162,-21.13826 -4.08878,-31.73594 -0.19083,-0.41749 0.0813,-1.53676 -0.53831,-1.55048 z"
         style="opacity:1;vector-effect:none;fill:#ffffff;fill-opacity:1;stroke:none;stroke-width:0.58355618;stroke-linecap:round;stroke-linejoin:miter;stroke-miterlimit:4;stroke-dasharray:none;stroke-dashoffset:0;stroke-opacity:1" />
      <path
         transform="scale(0.26458333)"
         inkscape:connector-curvature="0"
         id="path64"
         d="m 239.79519,858.96162 c -1.64399,0.64875 -2.39944,2.49709 -3.38114,3.85033 -4.85292,8.23906 -9.00785,16.86798 -13.20581,25.4528 -1.36963,3.18929 -3.21318,6.33939 -3.50766,9.85881 -0.18309,1.24846 0.65811,2.46451 1.95522,2.55597 2.48893,0.41299 5.45083,0.26718 7.24574,2.36952 2.98951,2.36763 7.03766,1.69416 10.57732,1.94058 1.44699,-0.0711 3.00523,0.23114 4.39548,-0.12766 -0.56683,-11.31227 -1.49493,-22.63934 -2.27829,-33.95172 -0.34899,-3.82574 -0.43959,-7.71489 -0.98014,-11.50161 -0.16598,-0.28543 -0.47862,-0.50294 -0.82072,-0.44702 z"
         style="opacity:1;vector-effect:none;fill:#ffffff;fill-opacity:1;stroke:none;stroke-width:0.58355618;stroke-linecap:round;stroke-linejoin:miter;stroke-miterlimit:4;stroke-dasharray:none;stroke-dashoffset:0;stroke-opacity:1" />
      <path
         transform="scale(0.26458333)"
         inkscape:connector-curvature="0"
         id="path66"
         d="m 262.35747,854.74529 c -1.05522,0.80915 -1.27525,2.36619 -1.8752,3.50678 -3.81408,10.19663 -6.94498,20.6452 -9.67951,31.17944 -0.866,3.90344 -2.04119,7.8286 -2.01396,11.85588 -0.0714,0.95541 1.04139,1.34828 1.75339,0.84989 5.16047,-2.32185 9.16633,-6.55161 12.79112,-10.78289 3.12482,-3.60576 5.6437,-8.14516 5.29584,-13.06685 -0.44474,-6.6374 -2.6285,-12.98912 -4.39018,-19.35824 -0.54688,-1.37485 -0.71666,-3.0526 -1.73013,-4.16706 -0.0478,-0.0186 -0.10064,-0.0245 -0.15137,-0.017 z"
         style="opacity:1;vector-effect:none;fill:#ffffff;fill-opacity:1;stroke:none;stroke-width:0.58355618;stroke-linecap:round;stroke-linejoin:miter;stroke-miterlimit:4;stroke-dasharray:none;stroke-dashoffset:0;stroke-opacity:1" />
      <path
         transform="scale(0.26458333)"
         inkscape:connector-curvature="0"
         id="path68"
         d="m 281.74173,729.43032 c -1.50299,0.17765 -1.27393,2.1271 -1.22022,3.22171 1.02053,10.28469 3.3033,20.40901 5.94192,30.3848 0.56052,0.73599 0.88138,-0.65913 1.11705,-1.00538 3.86183,-8.21654 7.94032,-16.35179 11.24498,-24.81415 0.46473,-0.9587 0.68045,-2.4093 -0.48644,-2.9687 -3.37844,-1.97167 -7.41719,-2.16404 -11.06808,-3.38485 -1.84829,-0.42544 -3.61173,-1.38414 -5.52921,-1.43343 z"
         style="opacity:1;vector-effect:none;fill:#ffffff;fill-opacity:1;stroke:none;stroke-width:0.58355618;stroke-linecap:round;stroke-linejoin:miter;stroke-miterlimit:4;stroke-dasharray:none;stroke-dashoffset:0;stroke-opacity:1" />
      <path
         transform="scale(0.26458333)"
         inkscape:connector-curvature="0"
         id="path70"
         d="m 254.06553,720.52895 c -0.94327,0.32839 -0.58521,1.74465 -0.84507,2.50493 -0.50309,6.90634 -0.3022,13.84847 -0.25868,20.76888 0.1086,3.48242 0.0803,7.10333 1.27128,10.41548 0.89075,0.851 1.93655,-0.52536 2.63475,-1.00379 4.74959,-4.37076 8.75651,-9.55598 11.96475,-15.15081 1.37925,-2.73603 3.09393,-5.73406 2.61865,-8.90926 -0.83179,-2.48077 -3.64119,-3.41499 -5.81185,-4.38793 -3.79298,-1.50346 -7.55354,-3.19613 -11.50051,-4.24105 z"
         style="opacity:1;vector-effect:none;fill:#ffffff;fill-opacity:1;stroke:none;stroke-width:0.58355618;stroke-linecap:round;stroke-linejoin:miter;stroke-miterlimit:4;stroke-dasharray:none;stroke-dashoffset:0;stroke-opacity:1" />
      <path
         transform="scale(0.26458333)"
         inkscape:connector-curvature="0"
         id="path72"
         d="m 225.83469,708.01712 c -0.97778,0.0219 -1.59147,1.03747 -1.18727,1.92505 0.97415,5.7872 1.85739,11.60708 3.12317,17.33426 0.33424,1.02543 1.2237,2.02916 2.4113,1.67179 2.7105,-0.54213 5.06901,-2.15993 7.51614,-3.37689 2.19851,-1.36649 5.0353,-2.70908 5.74861,-5.42712 0.48448,-2.24989 -1.23451,-4.11865 -2.95688,-5.27948 -4.07812,-2.80882 -8.64323,-4.86858 -13.26947,-6.59374 -0.44962,-0.12743 -0.91173,-0.28202 -1.3856,-0.25387 z"
         style="opacity:1;vector-effect:none;fill:#ffffff;fill-opacity:1;stroke:none;stroke-width:0.58355618;stroke-linecap:round;stroke-linejoin:miter;stroke-miterlimit:4;stroke-dasharray:none;stroke-dashoffset:0;stroke-opacity:1" />
      <path
         transform="scale(0.26458333)"
         inkscape:connector-curvature="0"
         id="path74"
         d="m 203.3339,688.45587 c -1.27582,0.22529 -1.3027,1.93687 -1.70389,2.90378 -1.59677,6.72301 -2.55228,13.61406 -2.8756,20.51585 0.11445,0.90503 -0.25855,2.19992 0.50585,2.86782 1.29617,0.0895 2.35138,-1.04283 3.46833,-1.56297 4.16818,-2.72182 8.40081,-5.4632 11.98601,-8.93991 0.8359,-0.72329 1.40224,-2.21718 0.27887,-2.9633 -3.09289,-1.73634 -5.23088,-4.60922 -7.1351,-7.53606 -1.28137,-1.69171 -2.18256,-3.78212 -3.86971,-5.11216 -0.1997,-0.10909 -0.42513,-0.18204 -0.65476,-0.17305 z"
         style="opacity:1;vector-effect:none;fill:#ffffff;fill-opacity:1;stroke:none;stroke-width:0.58355618;stroke-linecap:round;stroke-linejoin:miter;stroke-miterlimit:4;stroke-dasharray:none;stroke-dashoffset:0;stroke-opacity:1" />
      <path
         inkscape:connector-curvature="0"
         id="path47"
         d="m 14.388685,296.0161 c -5.4229142,-0.81447 -8.4031788,-1.56238 -10.9261186,-2.7419 -2.85138073,-1.33311 -2.90440633,-1.4019 -2.90440633,-3.76762 0,-2.04439 0.38303476,-2.87501 2.52630613,-5.47846 2.6528486,-3.22236 3.7885294,-4.18916 9.6445558,-8.2103 9.423796,-6.47099 13.274069,-9.18817 16.491402,-11.63814 1.919899,-1.46197 3.7368,-2.65814 4.037578,-2.65814 0.300778,0 1.577407,-0.49789 2.836953,-1.10643 2.739015,-1.32336 4.762185,-1.42148 5.210686,-0.25273 0.287229,0.7485 0.465438,0.73145 1.446014,-0.13821 0.615106,-0.5456 1.586523,-2.03814 2.158681,-3.31671 1.028585,-2.29852 1.0271,-2.36084 -0.132145,-5.53221 -0.644881,-1.76414 -1.493667,-4.20332 -1.886194,-5.4204 -0.392527,-1.2171 -2.222538,-5.10219 -4.066683,-8.63354 -4.184946,-8.01376 -5.019116,-11.52083 -6.762584,-28.4323 -0.345063,-3.34699 -1.218397,-7.82807 -1.940745,-9.95798 -2.202758,-6.49497 -3.009119,-11.53314 -3.009119,-18.80101 0,-6.75484 0.212038,-8.11302 2.851672,-18.26481 0.632921,-2.43418 1.396731,-5.54605 1.697343,-6.91526 0.300589,-1.36924 0.769268,-2.72601 1.041485,-3.01506 0.272216,-0.28907 0.49494,-0.83116 0.49494,-1.20466 0,-0.37352 1.306968,-2.53622 2.904406,-4.80603 1.597417,-2.26981 4.815378,-6.85582 7.151034,-10.19115 2.335636,-3.3353 5.074087,-6.76107 6.08542,-7.61278 1.011355,-0.85174 4.798002,-3.00541 8.414763,-4.78594 9.380681,-4.6181 11.201575,-4.51487 19.069082,1.08105 3.748738,2.66635 7.376664,6.81533 8.673597,9.91931 2.401352,5.74726 4.122929,25.16356 2.808935,31.67967 -0.36591,1.81443 -0.3367,1.86879 0.464225,0.86405 0.470101,-0.58974 1.34061,-1.14641 1.934472,-1.23703 2.153644,-0.32867 1.766761,1.10166 -1.047256,3.87177 l -2.873523,2.82867 1.78192,1.45434 c 1.817528,1.4834 1.657364,2.35449 -0.302116,1.64312 -0.888577,-0.32261 -1.325662,0.0537 -2.394453,2.06142 -1.284722,2.41333 -1.288778,2.46912 -0.233995,3.20792 0.590411,0.41352 1.39349,1.52448 1.784638,2.4688 0.629031,1.51864 0.583407,1.88806 -0.394974,3.1985 -0.608372,0.81487 -1.889895,1.70633 -2.847826,1.98108 -1.605635,0.46048 -1.74167,0.68513 -1.74167,2.8763 0,1.30727 -0.275979,2.54739 -0.613287,2.75587 -0.337306,0.20847 -1.737048,2.73548 -3.110549,5.61557 -2.304397,4.83214 -2.566786,5.16738 -3.397549,4.34078 -0.49517,-0.49268 -1.287586,-2.44486 -1.760906,-4.33819 l -0.860599,-3.44241 -1.734289,2.38874 c -0.953855,1.31381 -2.433699,4.42569 -3.288549,6.91528 -1.860914,5.41947 -2.05376,11.93499 -0.508344,17.17284 0.847156,2.87116 1.037889,3.13015 1.669283,2.26667 1.03841,-1.42013 1.668445,-0.72663 2.832436,3.11774 l 1.036467,3.42323 1.015851,-2.39195 c 0.558712,-1.31556 1.531573,-4.44817 2.161901,-6.96134 1.169135,-4.66151 2.51696,-6.68723 4.056333,-6.0965 1.502511,0.57655 1.948587,3.00349 1.948587,10.60125 0,8.61731 -0.47744,11.27275 -3.383477,18.8183 -2.796829,7.26194 -4.866312,9.35776 -11.956501,12.10871 -5.594222,2.17055 -7.521377,2.37348 -11.414012,1.20197 l -2.588114,-0.77891 -1.302953,1.74705 c -1.720091,2.30637 -2.580315,4.02005 -2.205895,4.39445 0.166856,0.16686 1.139842,-0.19006 2.162153,-0.7933 2.051711,-1.21053 2.698702,-1.04269 6.195904,1.60731 1.53653,1.16431 2.692053,1.42206 8.298319,1.85092 3.58226,0.27406 8.380324,0.86129 10.662371,1.30497 2.282023,0.44366 7.883397,0.94695 12.447467,1.11836 4.564071,0.17145 10.289916,0.52929 12.724087,0.7953 7.56969,0.82715 18.24304,2.48497 18.53291,2.87859 0.46216,0.62752 14.6531,2.93834 15.36035,2.50123 0.25714,-0.1589 1.44959,-0.056 2.64988,0.22873 1.87425,0.44461 20.79597,2.73373 22.59679,2.73373 0.3477,0 2.7428,-1.38236 5.32245,-3.07192 4.13885,-2.71072 4.91793,-3.02955 6.62656,-2.71157 1.06495,0.19821 3.28508,0.34002 4.93365,0.31522 1.64855,-0.0249 3.36045,0.2562 3.8042,0.62449 0.44376,0.36829 1.6296,0.72224 2.63518,0.78658 2.81239,0.18003 5.18324,1.60258 4.84244,2.90576 -0.24556,0.9391 5.6e-4,1.08166 1.84689,1.06884 1.17162,-0.008 3.37496,0.2718 4.89634,0.62207 1.52134,0.35025 4.66541,0.96911 6.9868,1.37524 6.52582,1.14167 8.96332,3.49087 5.78375,5.57421 -1.17405,0.76927 -2.30095,0.80341 -9.26645,0.28087 -4.36144,-0.32718 -8.49002,-0.72029 -9.17463,-0.87356 -0.87277,-0.19529 -1.24474,-0.0239 -1.24474,0.57357 0,0.46872 -0.68463,1.14817 -1.52137,1.50988 -0.83674,0.36171 -2.11507,1.1032 -2.84072,1.64781 -1.75823,1.31953 -2.86171,1.25463 -8.05063,-0.47343 -4.08127,-1.3592 -4.63388,-1.4167 -7.74698,-0.80619 -4.11563,0.80711 -8.02197,0.73094 -14.0562,-0.27405 -2.54021,-0.42308 -5.17945,-0.62846 -5.86497,-0.45639 -0.68553,0.17208 -3.08826,-0.0531 -5.33943,-0.50008 -6.8877,-1.36795 -18.41513,-2.55718 -41.15885,-4.24615 -3.955528,-0.29373 -7.689776,-0.67928 -8.298315,-0.85673 -0.608541,-0.17752 -2.849081,-0.53336 -4.978992,-0.79085 -2.12989,-0.25752 -5.055059,-0.64805 -6.500341,-0.86788 l -2.627799,-0.39969 v 2.03895 c 0,1.12142 -0.36957,2.75359 -0.821249,3.62707 -0.786143,1.5202 -3.988274,4.38346 -6.923856,6.19111 -1.977043,1.21741 -11.594103,3.27345 -14.660367,3.13428 -4.03187,-0.18295 -12.402367,0.29468 -22.125958,1.26268 -9.644639,0.96018 -17.255235,1.21245 -20.748694,0.68777 z m 23.511901,-2.68085 c 4.868361,-0.45922 12.087893,-0.92648 16.043423,-1.03834 10.797695,-0.30537 16.641385,-1.66417 20.621671,-4.79508 3.043369,-2.39389 4.368758,-6.02418 2.7796,-7.61334 -0.91626,-0.91625 -1.578996,-0.83243 -1.201252,0.15201 0.380484,0.99151 -1.823131,4.71642 -2.790179,4.71642 -1.349079,0 -1.46362,-0.79982 -0.24608,-1.71821 1.221471,-0.92136 1.989756,-4.36721 0.973718,-4.36721 -0.273973,0 -0.498118,0.38473 -0.498118,0.85498 0,0.47022 -0.624453,1.47942 -1.3877,2.24267 -1.696861,1.69686 -3.06802,1.2148 -1.502447,-0.52823 0.586084,-0.65249 1.219359,-1.62203 1.407291,-2.15453 0.595785,-1.68811 -1.201984,-1.09919 -3.042074,0.99655 -1.268285,1.44452 -1.886318,1.80029 -2.334276,1.34378 -0.445574,-0.45406 -0.263497,-0.90347 0.677666,-1.67261 0.707816,-0.57843 1.128801,-1.30761 0.935496,-1.62038 -0.645653,-1.04468 -2.276065,-0.58537 -3.88561,1.09462 -1.099341,1.14747 -1.771298,1.48556 -2.166711,1.09016 -0.395413,-0.39543 -0.0621,-0.99089 1.075127,-1.92005 l 1.648311,-1.34684 -2.284074,-0.0209 c -2.013091,-0.0167 -2.363842,0.17272 -2.956387,1.60324 -0.375047,0.90544 -0.511123,2.35706 -0.307761,3.28301 0.542801,2.47137 -1.451242,3.56825 -6.829159,3.75659 -2.320602,0.0814 -7.385007,0.57316 -11.254266,1.09313 -6.217754,0.83556 -7.824456,0.86109 -13.830525,0.21987 -3.737552,-0.39902 -8.289224,-0.80952 -10.114865,-0.91227 -6.426196,-0.3616 -6.606622,-0.55202 -3.203176,-3.38044 3.805758,-3.16273 6.851928,-4.962 11.390113,-6.72771 2.191153,-0.85255 5.476107,-2.43712 7.299907,-3.52127 3.115463,-1.85201 4.152516,-2.09715 4.152516,-0.98164 0,0.65069 -7.825543,4.82063 -12.002961,6.39594 -3.440935,1.29757 -9.128747,4.62447 -9.820903,5.74443 -0.386818,0.62588 -0.295614,0.64869 3.290954,0.82357 1.21708,0.0594 4.828049,0.42197 8.024347,0.80582 4.399034,0.52829 6.953672,0.55129 10.511196,0.0945 6.155822,-0.79031 11.971702,-1.2575 14.37525,-1.15479 1.061747,0.0453 2.866624,-0.0757 4.010857,-0.269 1.912309,-0.32309 2.080439,-0.49858 2.080439,-2.17158 0,-1.00105 0.374922,-2.71737 0.833125,-3.81404 0.458224,-1.09666 0.769415,-2.30959 0.691528,-2.69536 -0.14699,-0.7284 -0.01882,-0.72459 4.837395,0.14323 6.837439,1.22199 10.314547,1.7287 15.213582,2.21706 7.308898,0.72855 13.350304,1.50703 14.660367,1.88907 0.608539,0.17753 4.342789,0.563 8.298319,0.85674 22.68833,1.68488 34.26843,2.87797 41.10511,4.23507 2.22162,0.44097 4.5137,0.6512 5.09351,0.46719 0.57983,-0.184 3.47217,0.0774 6.42741,0.58069 5.10334,0.86931 9.17176,0.85776 15.42018,-0.0439 1.58732,-0.22904 3.37414,0.0802 6.32066,1.09403 4.89894,1.68555 6.84061,1.82574 6.5805,0.47514 -0.27849,-1.44604 -3.40183,-2.976 -6.7891,-3.3256 -2.92391,-0.30178 -4.83252,-1.35046 -3.7149,-2.04118 0.44193,-0.27313 9.03103,0.38686 14.19949,1.09111 6.02894,0.82149 11.20381,1.29597 15.76682,1.4456 4.37941,0.14364 5.2556,0.0339 5.2556,-0.65752 0,-1.39491 -11.93075,-3.68386 -21.96177,-4.21339 -5.13642,-0.27118 -7.10223,-0.57263 -7.31283,-1.12145 -0.22759,-0.59311 0.63319,-0.75058 4.10302,-0.75058 3.53087,0 4.33298,-0.15138 4.09462,-0.77245 -0.3173,-0.82687 -2.92934,-1.54209 -3.75909,-1.02929 -0.27533,0.1702 -1.46858,0.39659 -2.65166,0.50316 -1.18306,0.10663 -2.74104,0.58033 -3.46215,1.05284 -0.72113,0.4725 -1.4507,0.63329 -1.62126,0.35731 -0.5709,-0.92374 1.01564,-2.29536 3.25037,-2.81006 l 2.2129,-0.5097 -2.37322,-0.0556 c -1.37907,-0.0324 -3.2784,0.4062 -4.53399,1.04676 -2.36652,1.20731 -3.54751,0.60851 -1.55389,-0.78788 l 1.23879,-0.86767 h -1.39378 c -1.44967,0 -8.75962,4.47259 -9.51449,5.82144 -0.23738,0.42419 -0.7362,0.66646 -1.10849,0.53834 -0.65403,-0.22501 -13.16616,-1.59835 -24.46542,-2.68529 -3.06547,-0.29488 -10.46064,-1.55671 -16.87325,-2.87905 -13.10387,-2.70213 -18.88063,-3.40444 -31.810215,-3.86742 -4.2598,-0.15263 -9.612228,-0.66931 -11.894253,-1.14845 -2.282046,-0.47911 -7.054435,-0.95086 -10.605331,-1.04834 -6.832922,-0.18756 -7.690657,-0.42354 -9.821989,-2.70215 -1.497137,-1.60058 -3.424334,-1.86115 -4.467637,-0.60403 -0.889957,1.07235 -2.988295,1.06547 -3.883101,-0.0126 -0.903171,-1.08826 0.477752,-4.3288 3.033917,-7.11947 l 1.77801,-1.94113 2.666229,0.80241 c 1.466422,0.44134 3.503329,0.80241 4.526476,0.80241 2.993794,0 11.821699,-3.66303 13.761462,-5.71016 1.834319,-1.93584 5.365728,-10.77411 6.32414,-15.82779 0.70077,-3.69512 0.721973,-17.1818 0.02885,-18.27796 -0.72858,-1.15204 -0.895895,-0.82905 -2.14095,4.13315 -0.610757,2.43416 -1.438425,5.29708 -1.839274,6.36205 -1.255406,3.3353 -5.86692,9.78588 -7.88965,11.03599 -2.367376,1.46312 -5.498981,2.03107 -7.129832,1.29311 -0.667964,-0.30226 -2.375447,-1.07017 -3.794404,-1.7065 -3.134094,-1.40546 -5.218067,-3.90426 -6.846932,-8.20984 -0.674696,-1.78342 -2.28309,-5.8275 -3.57421,-8.98681 l -2.34747,-5.7442 0.615398,-11.40565 c 0.338456,-6.27312 0.857651,-12.89936 1.153767,-14.725 1.980682,-12.21151 3.022187,-22.66086 3.822674,-38.35239 0.437775,-8.58171 0.52921,-9.10015 1.835593,-10.40656 1.714152,-1.71413 3.822067,-1.35505 5.447754,0.928 1.483817,2.08385 0.368188,2.76649 -1.401144,0.85734 -1.319472,-1.42375 -2.910783,-2.01239 -2.161148,-0.79945 0.215447,0.3486 0.47815,8.0038 0.583804,17.01156 0.178982,15.26435 0.627985,20.65375 1.965,23.58816 0.843642,1.85163 12.46269,7.27782 18.884099,8.81906 1.876743,0.45044 3.972383,0.97809 4.657012,1.17252 1.143583,0.32481 1.244742,0.17209 1.244742,-1.87874 0,-1.93273 -0.247229,-2.38509 -1.842117,-3.37079 -2.184275,-1.34996 -4.027541,-4.4663 -3.482251,-5.88729 0.472755,-1.23201 1.562791,-0.34266 1.844772,1.50517 0.102664,0.67281 0.579978,1.65786 1.06068,2.18904 1.83852,2.03153 7.035741,1.93459 7.695319,-0.14343 0.44363,-1.39776 -1.1619,-3.90311 -2.403987,-3.75136 -0.514888,0.0629 -1.371808,-0.0483 -1.904281,-0.24725 -0.532472,-0.19884 -1.357338,-0.48436 -1.833042,-0.63434 -1.45421,-0.45852 -0.215301,-1.5087 1.485366,-1.25909 1.316711,0.1932 1.771569,-0.0636 2.600094,-1.46818 0.552316,-0.93632 1.15705,-2.28716 1.343831,-3.00188 0.283487,-1.08464 0.163092,-1.25328 -0.728767,-1.02007 -1.799275,0.47052 -1.835113,-0.7266 -0.07695,-2.56895 1.382722,-1.44887 1.731821,-2.36921 2.027873,-5.34611 0.991596,-9.97109 -0.263706,-25.21232 -2.574376,-31.25701 -1.318468,-3.44901 -4.349939,-6.80174 -8.940313,-9.88773 -4.256811,-2.86171 -4.881033,-3.11295 -7.734504,-3.11295 -2.737782,0 -3.970481,0.44054 -10.449201,3.73425 l -7.34526,3.73423 -4.292293,6.08544 c -9.957084,14.11666 -10.924341,15.78789 -12.327387,21.29903 -0.503513,1.97777 -1.551186,6.08543 -2.328171,9.12814 -2.628301,10.29255 -2.173924,25.07132 0.991826,32.25891 0.955339,2.16905 1.618933,6.28754 3.359494,20.85035 0.981727,8.21382 2.039687,11.72714 5.563193,18.4743 1.844145,3.53134 3.674155,7.41643 4.066684,8.63353 0.392527,1.21709 1.22952,3.62273 1.859994,5.34587 1.334881,3.64825 0.956489,5.591 -1.683229,8.64221 -0.864676,0.99948 -1.572138,2.15151 -1.572138,2.56007 0,0.40857 -0.357922,1.03988 -0.795384,1.40294 -0.648456,0.53816 -0.957681,0.3463 -1.673882,-1.0387 -0.483169,-0.93435 -0.990884,-1.6988 -1.128258,-1.6988 -1.459689,0 -8.40667,3.33394 -10.786236,5.17643 -2.855312,2.21085 -12.701618,9.12825 -18.241938,12.8156 -3.1121388,2.07128 -7.5015337,6.6043 -8.3286788,8.60119 -1.39574845,3.36963 2.3975059,5.62868 10.9754018,6.5363 4.978071,0.52672 14.008085,0.24819 24.723356,-0.7626 z M 72.148645,170.06772 c -1.193223,-0.66837 -0.385231,-1.48735 1.467384,-1.48735 1.923474,0 2.008658,-0.31776 0.503471,-1.87806 -2.646889,-2.74379 -4.4079,-5.249 -3.90723,-5.55843 0.863778,-0.53385 10.260287,8.4285 9.446461,9.00999 -0.571929,0.40865 -6.753363,0.33774 -7.510086,-0.0862 z M 186.99374,285.36924 c 0,-0.56078 -1.68501,-1.3247 -2.07086,-0.93884 -0.13905,0.13904 -0.0886,0.51834 0.11186,0.84285 0.44137,0.71415 1.95904,0.78853 1.95904,0.096 z M 64.095736,233.99916 c -0.1978,-2.96684 -0.384414,-5.75526 -0.414921,-6.19645 -0.08614,-1.2455 -0.831054,-0.18148 -3.318156,4.73888 -2.568857,5.08218 -2.706731,5.74465 -1.19569,5.74465 0.590578,0 1.227639,0.24895 1.415696,0.55324 0.187973,0.30428 1.136308,0.55339 2.107224,0.55359 l 1.765317,3.8e-4 z m 4.854416,2.53992 c 2.249971,-2.47949 2.458853,-3.40464 1.553528,-6.88041 -0.46134,-1.77123 -0.934743,-3.31636 -1.052022,-3.43364 -0.273263,-0.27326 -2.837916,7.82448 -3.360749,10.61136 -0.367332,1.95801 -0.3183,2.07686 0.642998,1.55892 0.572346,-0.30837 1.569671,-1.14369 2.216245,-1.85623 z m -13.255649,-1.71045 c -0.169992,-0.9889 -0.484758,-3.29167 -0.699641,-5.11731 l -0.390708,-3.31933 -0.980577,2.21288 c -1.309101,2.95432 -1.289593,4.48945 0.08155,6.41495 1.527454,2.14511 2.376826,2.06347 1.989442,-0.19111 z m 4.780145,-5.6723 2.420841,-4.6632 -1.61473,-3.86776 c -1.038307,-2.48701 -2.009118,-3.99291 -2.719466,-4.21837 -0.607598,-0.19279 -1.224397,-0.23096 -1.370657,-0.0847 -0.146364,0.14637 0.130682,1.79614 0.61523,3.66643 0.830721,3.20584 0.700792,5.13115 -0.276731,4.10028 -0.241543,-0.25471 -0.996364,-2.57919 -1.677396,-5.1655 -2.034648,-7.72691 -3.179131,-9.40475 -6.415115,-9.40475 -2.656758,0 -3.514974,0.91867 -3.506778,3.75369 0.0084,2.83156 0.468302,5.11022 1.025113,5.07685 0.192782,-0.0104 1.047172,-1.02775 1.89876,-2.25821 1.272426,-1.8385 1.691445,-2.11847 2.351191,-1.57093 0.617259,0.51228 0.802829,2.15087 0.802829,7.089 v 6.42275 l 1.424853,-2.09688 c 0.783676,-1.15328 1.717227,-2.0005 2.074585,-1.88272 0.385545,0.12713 0.841719,2.27588 1.121944,5.285 0.259713,2.78898 0.68653,4.93843 0.94846,4.77655 0.261928,-0.16183 1.565614,-2.39279 2.897067,-4.95751 z m 5.890547,-4.5142 c -1.357778,-2.76724 -2.39554,-9.6438 -1.955716,-12.95929 0.1909,-1.43863 0.840255,-4.04941 1.443128,-5.80172 0.978631,-2.8444 1.006964,-3.2846 0.264313,-4.10524 -0.596894,-0.65954 -0.831871,-2.19086 -0.831871,-5.42099 v -4.50181 l -2.567874,1.73306 c -2.42452,1.63629 -2.608583,1.67739 -3.296641,0.73642 -0.400808,-0.54816 -0.883014,-2.14553 -1.071573,-3.54974 -0.1886,-1.4042 -0.387718,-2.74656 -0.442604,-2.983 -0.05499,-0.23647 -1.413062,0.48941 -3.018153,1.61303 -4.146577,2.90277 -4.459817,2.38324 -3.301157,-5.47552 0.721135,-4.89126 0.893427,-9.79125 0.807071,-22.95353 -0.06043,-9.20408 -0.267971,-16.7348 -0.461318,-16.73492 -0.193409,-1.5e-4 -0.517418,4.29412 -0.720111,9.5428 -0.402501,10.422 -1.013174,17.61779 -2.218377,26.13972 -0.430331,3.04273 -1.060156,7.52381 -1.399659,9.95799 -0.33948,2.43415 -0.792812,7.7 -1.007402,11.70187 -0.360391,6.72152 -0.319032,7.23806 0.542529,6.77696 2.808852,-1.50323 6.285228,0.17878 8.223966,3.97891 0.679966,1.33288 1.493228,2.16061 2.122844,2.16061 1.979448,0 3.82374,2.20928 5.81475,6.96553 1.096539,2.61949 1.993709,5.56767 1.993709,6.55148 0,2.57476 0.688518,2.88957 1.458099,0.66669 0.567245,-1.63842 0.512359,-2.22478 -0.377953,-4.03931 z m -16.125116,-5.58032 -0.168528,-2.6278 -1.250367,2.01066 -1.250367,2.01067 1.250367,3.24493 1.250367,3.24494 0.168528,-2.6278 c 0.09284,-1.44528 0.09284,-3.81032 0,-5.2556 z m 28.875495,-24.46057 c 0,-0.2389 -0.684608,-0.57256 -1.52135,-0.74142 -0.836742,-0.16895 -1.964686,-0.47851 -2.506547,-0.6881 -0.881718,-0.34104 -0.948544,-0.12734 -0.636287,2.03585 0.191947,1.32929 0.589932,3.37779 0.884542,4.55221 l 0.53565,2.13528 1.622006,-3.4297 c 0.892089,-1.88634 1.621986,-3.62519 1.621986,-3.86412 z m -9.524515,2.81287 c 0.948794,-1.18064 1.880151,-2.76444 2.069671,-3.51953 0.303454,-1.20912 0.07443,-1.48103 -1.920317,-2.27914 -1.245684,-0.49842 -2.384313,-0.90623 -2.530279,-0.90623 -0.145947,0 -0.265421,1.9916 -0.265421,4.42578 0,2.43417 0.207209,4.42577 0.460629,4.42577 0.253356,0 1.236922,-0.966 2.185717,-2.14665 z m -7.111683,-5.30137 c 2.65613,-1.37355 2.537367,-2.36991 -0.454503,-3.81323 -2.224837,-1.07331 -2.647809,-1.14234 -2.504937,-0.40896 0.09451,0.48533 0.321394,1.81596 0.504078,2.95698 0.378665,2.36493 0.353657,2.35204 2.455362,1.26521 z m -7.146664,-4.66333 c 1.618347,-1.17234 1.987687,-1.68505 1.381426,-1.9177 -0.45513,-0.1746 -1.302076,-1.0979 -1.882116,-2.05169 -0.9043,-1.487 -1.097355,-1.5882 -1.354705,-0.7101 -0.55817,1.90455 -1.044329,6.27963 -0.69778,6.27963 0.189228,0 1.338249,-0.72007 2.553175,-1.60014 z"
         style="fill:#000000;stroke-width:0.55322129" />
    </g>
  </g>
</svg>
